<?xml version="1.0" standalone="no"?>
<!DOCTYPE svg PUBLIC "-//W3C//DTD SVG 20010904//EN"
 "http://www.w3.org/TR/2001/REC-SVG-20010904/DTD/svg10.dtd">
<svg version="1.0" xmlns="http://www.w3.org/2000/svg"
 width="192.000000pt" height="192.000000pt" viewBox="0 0 192.000000 192.000000"
 preserveAspectRatio="xMidYMid meet">
<metadata>
Created by potrace 1.14, written by Peter Selinger 2001-2017
</metadata>
<g transform="translate(0.000000,192.000000) scale(0.100000,-0.100000)"
fill="#000000" stroke="none">
<path d="M1372 1723 c-12 -2 -20 -9 -17 -14 3 -5 -1 -6 -9 -3 -20 8 -78 -24
-70 -38 4 -7 3 -8 -5 -4 -14 9 -92 -47 -146 -106 -36 -39 -37 -40 -5 -12 33
30 69 37 53 11 -4 -7 1 -6 10 2 9 7 15 17 12 21 -3 4 3 7 13 6 9 0 16 4 15 11
-2 8 4 10 14 6 12 -5 14 -3 8 7 -5 9 -4 11 3 6 6 -4 26 1 44 11 31 16 161 35
152 22 -4 -7 46 -56 51 -49 2 3 7 1 12 -4 5 -6 2 -6 -6 -1 -11 6 -13 4 -7 -11
22 -53 28 -96 23 -164 -3 -52 -2 -66 4 -45 5 17 11 71 15 120 6 96 -11 183
-35 177 -7 -1 -10 2 -7 6 16 27 -66 57 -122 45z m55 -9 c-3 -3 -12 -4 -19 -1
-8 3 -5 6 6 6 11 1 17 -2 13 -5z m48 -14 c3 -6 -1 -7 -9 -4 -18 7 -21 14 -7
14 6 0 13 -4 16 -10z m-292 -114 c4 -10 1 -13 -8 -9 -8 3 -12 9 -9 14 7 12 11
11 17 -5z m347 -36 c0 -16 -2 -30 -4 -30 -2 0 -6 14 -8 30 -3 17 -1 30 4 30 4
0 8 -13 8 -30z"/>
<path d="M1124 1518 l-29 -33 33 29 c30 28 37 36 29 36 -2 0 -16 -15 -33 -32z"/>
<path d="M710 675 l0 -115 30 0 c29 0 30 1 30 48 l1 47 25 -47 c22 -44 28 -48
60 -48 l36 0 -35 63 -34 62 28 45 c36 55 36 60 -1 60 -25 0 -33 -7 -52 -42
l-23 -43 -3 43 c-3 39 -5 42 -33 42 l-29 0 0 -115z"/>
<path d="M962 738 c-22 -58 -52 -157 -52 -170 0 -4 11 -8 25 -8 18 0 28 7 35
26 8 21 15 25 42 22 25 -2 34 -8 36 -25 3 -19 10 -23 37 -23 l34 0 -13 43
c-56 184 -58 187 -92 187 -30 0 -34 -4 -52 -52z m62 -50 c6 -34 5 -38 -14 -38
-19 0 -21 4 -15 33 13 59 19 60 29 5z"/>
<path d="M1150 675 l0 -115 70 0 c68 0 70 1 70 25 0 23 -4 25 -40 25 -33 0
-40 3 -40 20 0 16 7 20 33 20 40 0 46 5 40 31 -4 14 -14 19 -39 19 -27 0 -34
4 -34 20 0 17 7 20 40 20 36 0 40 3 40 25 0 24 -2 25 -70 25 l-70 0 0 -115z"/>
<path d="M1338 784 c-5 -4 -8 -56 -8 -116 l0 -108 35 0 c35 0 35 0 35 46 0 53
14 51 31 -6 11 -35 16 -40 42 -40 28 0 29 2 23 32 -3 17 -12 43 -19 57 -11 22
-10 28 5 44 22 20 23 46 4 72 -10 14 -30 20 -77 23 -35 2 -67 0 -71 -4z m98
-55 c8 -14 -21 -43 -35 -35 -19 12 -13 46 8 46 11 0 23 -5 27 -11z"/>
<path d="M1540 675 l0 -116 31 3 31 3 0 110 0 110 -31 3 -31 3 0 -116z"/>
<path d="M40 776 c0 -2 8 -10 18 -17 15 -13 16 -12 3 4 -13 16 -21 21 -21 13z"/>
<path d="M556 655 c-3 -9 -6 -22 -5 -28 0 -7 5 -1 10 12 5 13 8 26 5 28 -2 2
-6 -3 -10 -12z"/>
<path d="M526 554 c-4 -14 -5 -28 -3 -31 3 -2 8 8 11 23 4 14 5 28 3 31 -3 2
-8 -8 -11 -23z"/>
<path d="M511 494 c0 -11 3 -14 6 -6 3 7 2 16 -1 19 -3 4 -6 -2 -5 -13z"/>
<path d="M501 454 c0 -11 3 -14 6 -6 3 7 2 16 -1 19 -3 4 -6 -2 -5 -13z"/>
<path d="M491 404 c0 -11 3 -14 6 -6 3 7 2 16 -1 19 -3 4 -6 -2 -5 -13z"/>
</g>
</svg>
